<mxfile host="app.diagrams.net" modified="2021-02-20T11:09:27.857Z" agent="5.0 (Windows NT 10.0; Win64; x64) AppleWebKit/537.36 (KHTML, like Gecko) Chrome/88.0.4324.182 Safari/537.36" etag="fcvLuryWY_g1dnyMVQc8" version="14.2.9" type="github">
  <diagram id="4WpzdTXjIb1PRQE8VeBf" name="第 1 页">
    <mxGraphModel dx="1422" dy="762" grid="1" gridSize="10" guides="1" tooltips="1" connect="1" arrows="1" fold="1" page="1" pageScale="1" pageWidth="1169" pageHeight="827" math="0" shadow="0">
      <root>
        <mxCell id="0" />
        <mxCell id="1" parent="0" />
        <mxCell id="yBk941FRxCLUYqu0R4wv-4" value="" style="edgeStyle=orthogonalEdgeStyle;rounded=0;orthogonalLoop=1;jettySize=auto;html=1;" edge="1" parent="1" source="yBk941FRxCLUYqu0R4wv-2" target="yBk941FRxCLUYqu0R4wv-3">
          <mxGeometry relative="1" as="geometry" />
        </mxCell>
        <mxCell id="yBk941FRxCLUYqu0R4wv-2" value="&lt;font style=&quot;font-size: 18px&quot;&gt;IOT平台&lt;/font&gt;" style="rounded=1;whiteSpace=wrap;html=1;absoluteArcSize=1;arcSize=14;strokeWidth=2;" vertex="1" parent="1">
          <mxGeometry x="170" y="160" width="130" height="50" as="geometry" />
        </mxCell>
        <mxCell id="yBk941FRxCLUYqu0R4wv-7" value="" style="edgeStyle=orthogonalEdgeStyle;rounded=0;orthogonalLoop=1;jettySize=auto;html=1;" edge="1" parent="1" source="yBk941FRxCLUYqu0R4wv-3" target="yBk941FRxCLUYqu0R4wv-6">
          <mxGeometry relative="1" as="geometry" />
        </mxCell>
        <mxCell id="yBk941FRxCLUYqu0R4wv-3" value="&lt;font style=&quot;font-size: 18px&quot;&gt;设备模型服务&lt;/font&gt;" style="rounded=1;whiteSpace=wrap;html=1;absoluteArcSize=1;arcSize=14;strokeWidth=2;" vertex="1" parent="1">
          <mxGeometry x="390" y="160" width="130" height="50" as="geometry" />
        </mxCell>
        <mxCell id="yBk941FRxCLUYqu0R4wv-5" value="&lt;font style=&quot;font-size: 14px&quot;&gt;提取设备信息&lt;/font&gt;" style="text;html=1;strokeColor=none;fillColor=none;align=center;verticalAlign=middle;whiteSpace=wrap;rounded=0;" vertex="1" parent="1">
          <mxGeometry x="320" y="160" width="50" height="20" as="geometry" />
        </mxCell>
        <mxCell id="yBk941FRxCLUYqu0R4wv-12" value="" style="edgeStyle=orthogonalEdgeStyle;rounded=0;orthogonalLoop=1;jettySize=auto;html=1;" edge="1" parent="1" source="yBk941FRxCLUYqu0R4wv-6" target="yBk941FRxCLUYqu0R4wv-11">
          <mxGeometry relative="1" as="geometry" />
        </mxCell>
        <mxCell id="yBk941FRxCLUYqu0R4wv-6" value="&lt;font style=&quot;font-size: 18px&quot;&gt;业务微服务&lt;/font&gt;" style="whiteSpace=wrap;html=1;rounded=1;strokeWidth=2;arcSize=14;" vertex="1" parent="1">
          <mxGeometry x="590" y="162.5" width="125" height="45" as="geometry" />
        </mxCell>
        <mxCell id="yBk941FRxCLUYqu0R4wv-8" value="&lt;font style=&quot;font-size: 14px&quot;&gt;推送&lt;/font&gt;" style="text;html=1;strokeColor=none;fillColor=none;align=center;verticalAlign=middle;whiteSpace=wrap;rounded=0;" vertex="1" parent="1">
          <mxGeometry x="534.5" y="160" width="50" height="20" as="geometry" />
        </mxCell>
        <mxCell id="yBk941FRxCLUYqu0R4wv-14" value="" style="edgeStyle=orthogonalEdgeStyle;rounded=0;orthogonalLoop=1;jettySize=auto;html=1;" edge="1" parent="1" source="yBk941FRxCLUYqu0R4wv-11" target="yBk941FRxCLUYqu0R4wv-13">
          <mxGeometry relative="1" as="geometry">
            <Array as="points">
              <mxPoint x="800" y="80" />
            </Array>
          </mxGeometry>
        </mxCell>
        <mxCell id="yBk941FRxCLUYqu0R4wv-17" value="" style="edgeStyle=orthogonalEdgeStyle;rounded=0;orthogonalLoop=1;jettySize=auto;html=1;" edge="1" parent="1" source="yBk941FRxCLUYqu0R4wv-11" target="yBk941FRxCLUYqu0R4wv-16">
          <mxGeometry relative="1" as="geometry">
            <Array as="points">
              <mxPoint x="800" y="300" />
            </Array>
          </mxGeometry>
        </mxCell>
        <mxCell id="yBk941FRxCLUYqu0R4wv-11" value="&lt;font style=&quot;font-size: 18px&quot;&gt;是否&lt;br&gt;健康&lt;/font&gt;" style="rhombus;whiteSpace=wrap;html=1;rounded=1;strokeWidth=2;arcSize=14;" vertex="1" parent="1">
          <mxGeometry x="760" y="145" width="80" height="80" as="geometry" />
        </mxCell>
        <mxCell id="yBk941FRxCLUYqu0R4wv-24" value="" style="edgeStyle=orthogonalEdgeStyle;rounded=0;orthogonalLoop=1;jettySize=auto;html=1;" edge="1" parent="1" source="yBk941FRxCLUYqu0R4wv-13" target="yBk941FRxCLUYqu0R4wv-23">
          <mxGeometry relative="1" as="geometry" />
        </mxCell>
        <mxCell id="yBk941FRxCLUYqu0R4wv-13" value="&lt;font style=&quot;font-size: 14px&quot;&gt;图形界面展示设备状态指标数据&lt;/font&gt;" style="whiteSpace=wrap;html=1;rounded=1;strokeWidth=2;arcSize=14;" vertex="1" parent="1">
          <mxGeometry x="830" y="50" width="120" height="60" as="geometry" />
        </mxCell>
        <mxCell id="yBk941FRxCLUYqu0R4wv-15" value="是" style="text;html=1;strokeColor=none;fillColor=none;align=center;verticalAlign=middle;whiteSpace=wrap;rounded=0;" vertex="1" parent="1">
          <mxGeometry x="760" y="110" width="40" height="20" as="geometry" />
        </mxCell>
        <mxCell id="yBk941FRxCLUYqu0R4wv-25" value="" style="edgeStyle=orthogonalEdgeStyle;rounded=0;orthogonalLoop=1;jettySize=auto;html=1;entryX=0.5;entryY=1;entryDx=0;entryDy=0;" edge="1" parent="1" source="yBk941FRxCLUYqu0R4wv-16" target="yBk941FRxCLUYqu0R4wv-23">
          <mxGeometry relative="1" as="geometry">
            <mxPoint x="1030" y="300" as="targetPoint" />
          </mxGeometry>
        </mxCell>
        <mxCell id="yBk941FRxCLUYqu0R4wv-16" value="&lt;font style=&quot;font-size: 14px&quot;&gt;前端展示异常信息，生成告警信息，推送告警&lt;/font&gt;" style="whiteSpace=wrap;html=1;rounded=1;strokeWidth=2;arcSize=14;" vertex="1" parent="1">
          <mxGeometry x="830" y="270" width="120" height="60" as="geometry" />
        </mxCell>
        <mxCell id="yBk941FRxCLUYqu0R4wv-18" value="否" style="text;html=1;strokeColor=none;fillColor=none;align=center;verticalAlign=middle;whiteSpace=wrap;rounded=0;" vertex="1" parent="1">
          <mxGeometry x="760" y="250" width="40" height="20" as="geometry" />
        </mxCell>
        <mxCell id="yBk941FRxCLUYqu0R4wv-23" value="&lt;font style=&quot;font-size: 18px&quot;&gt;结束&lt;/font&gt;" style="whiteSpace=wrap;html=1;rounded=1;strokeWidth=2;arcSize=14;" vertex="1" parent="1">
          <mxGeometry x="1000" y="162.5" width="70" height="40" as="geometry" />
        </mxCell>
      </root>
    </mxGraphModel>
  </diagram>
</mxfile>
